Coordinates
version=1
nRows=19
nColumns=24
inDegrees=yes

Units are S.I. units (second, meters, Newtons, ...)
Angles are in degrees.

endheader
time	pelvis_tilt	pelvis_list	pelvis_rotation	pelvis_tx	pelvis_ty	pelvis_tz	hip_flexion_r	hip_adduction_r	hip_rotation_r	knee_angle_r	ankle_angle_r	subtalar_angle_r	mtp_angle_r	hip_flexion_l	hip_adduction_l	hip_rotation_l	knee_angle_l	ankle_angle_l	subtalar_angle_l	mtp_angle_l	lumbar_extension	lumbar_bending	lumbar_rotation
      0.68300000	      0.59926011	      4.04111560	     11.07297466	      0.06822697	      0.98843900	      0.22457270	     30.75289370	     -6.71964926	     -4.40141127	     -7.23424476	     11.15026464	     -5.57554683	      5.40310847	    -17.05614715	      4.73364525	     12.19598793	    -16.34256449	     18.09365063	     -2.66480063	     -1.93369371	     -2.58631322	     -6.75982863	     -9.40055313
      0.68716667	      0.62456671	      3.93232100	     11.28029098	      0.07446632	      0.98785793	      0.22487717	     30.74807315	     -6.64131967	     -4.32142797	     -7.92036513	     11.16777284	     -5.86867390	      5.41034963	    -17.23457415	      4.46998714	     12.25833819	    -16.70321952	     17.89692017	     -2.61648533	     -1.93015553	     -2.53658014	     -6.66894818	     -9.46174446
      0.69133333	      0.64372120	      3.81228076	     11.46892364	      0.08077897	      0.98727861	      0.22525529	     30.70189377	     -6.51612752	     -4.06861471	     -8.49614304	     10.90911978	     -6.55701701	      5.44435043	    -17.40237565	      4.19136784	     12.26341005	    -17.06565708	     17.70694780	     -2.49286937	     -1.87060571	     -2.44591768	     -6.53400245	     -9.73675749
      0.69550000	      0.67049469	      3.68239872	     11.66231205	      0.08713755	      0.98673273	      0.22563639	     30.65352516	     -6.38552710	     -3.94386735	     -9.09430080	     10.67415608	     -7.06809249	      5.49683258	    -17.56791657	      3.89641471	     12.25715707	    -17.44019380	     17.48470537	     -2.37701428	     -1.77765364	     -2.36507997	     -6.40804625	     -9.86361951
      0.69966667	      0.69448891	      3.54783068	     11.84731589	      0.09354073	      0.98619465	      0.22605889	     30.60100709	     -6.23916175	     -3.83148578	     -9.67445637	     10.37182997	     -7.58712580	      5.56916824	    -17.72428751	      3.59549375	     12.23406221	    -17.82156893	     17.23810341	     -2.26538458	     -1.64814494	     -2.27574789	     -6.28333628	     -9.99795254
      0.70383333	      0.71526941	      3.39872621	     12.02713594	      0.10000622	      0.98567250	      0.22651434	     30.54282957	     -6.06976900	     -3.74836090	    -10.22997875	     10.00066795	     -8.10967294	      5.66234968	    -17.86984058	      3.27626142	     12.18905278	    -18.20747395	     16.96077590	     -2.15522360	     -1.48232879	     -2.18131111	     -6.14849134	    -10.12086505
      0.70800000	      0.75575252	      3.27185889	     12.20193169	      0.10647261	      0.98519096	      0.22702797	     30.45305906	     -5.90157615	     -3.61949597	    -10.75952492	      9.56164231	     -8.76786154	      5.97349223	    -18.02340831	      2.96770220	     12.10001968	    -18.61389053	     16.65756732	     -1.94891519	     -0.94598681	     -2.11460328	     -6.06078110	    -10.23143013
      0.71216667	      0.77139350	      3.08891702	     12.36863822	      0.11303190	      0.98469302	      0.22753004	     30.38836450	     -5.68253672	     -3.58845709	    -11.26177057	      9.02132584	     -9.30713469	      6.16887572	    -18.13639572	      2.61408866	     12.00426711	    -19.03396317	     16.34317458	     -1.89739406	     -0.60002918	     -1.98680307	     -5.87853316	    -10.35913041
      0.71633333	      0.80165250	      2.93307330	     12.51636967	      0.11961916	      0.98423655	      0.22811244	     30.30958009	     -5.46705209	     -3.52661989	    -11.75999786	      8.41527782	     -9.90076958	      6.52608382	    -18.27151817	      2.27808726	     11.87451675	    -19.43042462	     15.93470223	     -1.69599322	      0.01869618	     -1.87599956	     -5.75522821	    -10.44613701
      0.72050000	      0.82088393	      2.73626014	     12.66847279	      0.12624660	      0.98377697	      0.22867552	     30.24164282	     -5.21659606	     -3.53306941	    -12.23687956	      7.76353620	    -10.43909454	      6.79192441	    -18.36238449	      1.90633530	     11.72523258	    -19.88203785	     15.55593962	     -1.63458079	      0.49003548	     -1.73269412	     -5.55982425	    -10.53650257
      0.72466667	      0.84330769	      2.53294969	     12.80018062	      0.13292460	      0.98334135	      0.22928922	     30.17430102	     -4.94341529	     -3.53586289	    -12.70638821	      7.04663311	    -10.98721998	      7.05063870	    -18.45389398	      1.52749502	     11.54473479	    -20.32633384	     15.12985853	     -1.51350443	      0.95761160	     -1.58357874	     -5.36421715	    -10.59998692
      0.72883333	      0.88555531	      2.32706900	     12.91628981	      0.13963979	      0.98293652	      0.22994146	     30.10900542	     -4.66291127	     -3.61744359	    -13.21034180	      6.32164735	    -11.40180543	      9.36414728	    -18.55484755	      1.13112542	     11.27745466	    -20.76656918	     14.58260374	     -1.27230677	      5.07913097	     -1.44992611	     -5.17554590	    -10.57047561
      0.73300000	      0.88604537	      2.12850998	     13.02347187	      0.14634652	      0.98251449	      0.23060928	     30.08115545	     -4.37989457	     -3.61014178	    -13.69011429	      5.52013292	    -11.92153367	      9.38440022	    -18.60170307	      0.77745435	     11.11319312	    -21.23999516	     14.02558503	     -1.31934075	      5.16439966	     -1.27952200	     -4.99675871	    -10.69219051
      0.73716667	      0.92170588	      1.91913996	     13.10622314	      0.15307954	      0.98214775	      0.23135837	     30.02633812	     -4.06082192	     -3.59272723	    -14.17292232	      4.68542339	    -12.46930338	      9.46694915	    -18.66337783	      0.39366101	     10.82990018	    -21.73868436	     13.46846429	     -1.15122719	      5.38994841	     -1.14248256	     -4.80942242	    -10.71954977
      0.74133333	      0.95324705	      1.69054099	     13.17955748	      0.15983763	      0.98179600	      0.23211361	     29.98760184	     -3.71859473	     -3.58658785	    -14.67202405	      3.85238777	    -12.98775441	      9.59054188	    -18.69661818	     -0.00424160	     10.51871433	    -22.27070942	     12.87534667	     -1.02273553	      5.71322547	     -0.99032157	     -4.60098069	    -10.73293518
      0.74550000	      0.98931634	      1.43984813	     13.24075876	      0.16661449	      0.98146016	      0.23289888	     29.95673400	     -3.34719915	     -3.59440458	    -15.18409075	      3.05138620	    -13.46308852	      9.72846947	    -18.70638602	     -0.42484959	     10.16258159	    -22.84399453	     12.26096613	     -0.93264062	      6.08543148	     -0.82450375	     -4.35674429	    -10.73126823
      0.74966667	      1.04075176	      1.20450110	     13.26810480	      0.17339579	      0.98115196	      0.23372931	     29.94585218	     -2.98019147	     -3.62603865	    -15.76844918	      2.26858265	    -13.80441791	     11.31671977	    -18.72670281	     -0.82881087	      9.75449636	    -23.41167723	     11.50155036	     -0.80137774	     10.34794075	     -0.68828834	     -4.12377102	    -10.70088200
      0.75383333	      1.08067842	      0.95403569	     13.29798280	      0.18017828	      0.98086416	      0.23456828	     29.94387578	     -2.59041403	     -3.60053107	    -16.34962150	      1.55719202	    -14.22006280	     11.31682801	    -18.70118040	     -1.23710337	      9.36952241	    -24.04220920	     10.73979182	     -0.78133425	     10.43114478	     -0.52991195	     -3.87844384	    -10.68829115
      0.75800000	      1.13928101	      0.69273228	     13.29646267	      0.18696688	      0.98060653	      0.23546015	     29.94438647	     -2.17146467	     -3.56591205	    -16.96702668	      0.86780223	    -14.60156188	     11.33491580	    -18.67141179	     -1.65729387	      8.91079937	    -24.70952256	      9.96829751	     -0.68986787	     10.60334502	     -0.39680113	     -3.60284744	    -10.64022945
